<mxfile host="app.diagrams.net" modified="2023-03-05T21:22:58.241Z" agent="5.0 (Linux; Android 11; Redmi Note 9S) AppleWebKit/537.36 (KHTML, like Gecko) Chrome/110.0.0.0 Mobile Safari/537.36" etag="Iz8E1nKn6_b7w-9eTEVZ" version="21.0.2" type="github">
  <diagram name="PÃ¡gina-1" id="RywFkAENAfR1ISjMMzVv">
    <mxGraphModel dx="449" dy="814" grid="0" gridSize="10" guides="1" tooltips="1" connect="1" arrows="1" fold="1" page="0" pageScale="1" pageWidth="827" pageHeight="1169" math="0" shadow="0">
      <root>
        <mxCell id="0" />
        <mxCell id="1" parent="0" />
        <mxCell id="9tfb_cwXO6ypFN6a8I7j-3" style="edgeStyle=none;curved=1;rounded=0;orthogonalLoop=1;jettySize=auto;html=1;endArrow=open;startSize=14;endSize=14;sourcePerimeterSpacing=8;targetPerimeterSpacing=8;" edge="1" parent="1" source="9tfb_cwXO6ypFN6a8I7j-1" target="9tfb_cwXO6ypFN6a8I7j-2">
          <mxGeometry relative="1" as="geometry" />
        </mxCell>
        <mxCell id="9tfb_cwXO6ypFN6a8I7j-1" value="" style="ellipse;whiteSpace=wrap;html=1;" vertex="1" parent="1">
          <mxGeometry x="95" y="136" width="160" height="100" as="geometry" />
        </mxCell>
        <mxCell id="9tfb_cwXO6ypFN6a8I7j-2" value="" style="ellipse;whiteSpace=wrap;html=1;" vertex="1" parent="1">
          <mxGeometry x="79" y="331" width="160" height="100" as="geometry" />
        </mxCell>
      </root>
    </mxGraphModel>
  </diagram>
</mxfile>
